<?xml version="1.0" standalone="no"?>
<!DOCTYPE svg PUBLIC "-//W3C//DTD SVG 20010904//EN"
 "http://www.w3.org/TR/2001/REC-SVG-20010904/DTD/svg10.dtd">
<svg version="1.0" xmlns="http://www.w3.org/2000/svg"
 width="300.000000pt" height="298.000000pt" viewBox="0 0 300.000000 298.000000"
 preserveAspectRatio="xMidYMid meet">
<metadata>
Created by potrace 1.10, written by Peter Selinger 2001-2011
</metadata>
<g transform="translate(0.000000,298.000000) scale(0.100000,-0.100000)"
fill="#000000" stroke="none">
<path d="M24 2940 c-15 -22 -25 -43 -22 -46 3 -3 16 12 29 33 13 21 28 41 33
45 7 5 7 8 -1 8 -7 0 -25 -18 -39 -40z"/>
<path d="M456 2925 c-37 -82 -76 -193 -76 -214 0 -10 -13 -43 -30 -74 -34 -63
-35 -68 -18 -65 8 2 11 -10 9 -37 -2 -29 -10 -48 -32 -68 -16 -15 -33 -26 -38
-23 -11 7 -24 -41 -15 -56 4 -6 3 -8 -4 -4 -12 7 -40 -106 -49 -201 -3 -35
-10 -63 -16 -63 -5 0 -7 7 -3 15 3 8 1 15 -4 15 -28 0 -25 -156 6 -267 5 -18
1 -25 -21 -33 -15 -6 -28 -9 -29 -8 -6 11 -36 147 -36 161 0 28 51 167 61 167
5 0 8 19 7 43 -1 37 -2 38 -5 9 -3 -18 -11 -36 -19 -39 -8 -3 -14 -9 -14 -15
0 -10 -25 -38 -34 -38 -2 0 -7 8 -9 18 -3 9 -4 0 -3 -20 2 -21 -1 -35 -5 -32
-9 5 -11 -6 -13 -128 0 -42 2 -71 6 -65 8 14 10 11 25 -30 8 -25 8 -33 0 -33
-7 -1 -5 -6 4 -13 13 -10 16 -34 16 -122 2 -161 17 -280 51 -385 39 -121 43
-145 36 -194 -6 -49 -7 -50 -23 -29 -15 18 -49 116 -106 303 -20 64 -60 118
-69 94 -3 -9 -5 -41 -4 -72 l1 -57 6 65 6 65 13 -55 c19 -83 37 -137 115 -349
58 -156 72 -188 74 -160 5 62 25 214 30 223 5 7 59 -116 66 -149 1 -5 5 -12 8
-15 3 -3 24 -37 46 -77 l41 -72 -204 -101 c-187 -92 -230 -120 -189 -120 17 0
42 -46 32 -57 -4 -3 -16 5 -28 18 l-21 24 4 -25 c6 -47 42 -37 251 70 109 56
200 100 202 98 7 -7 72 -165 90 -216 l17 -54 -30 -31 c-33 -34 -191 -278 -249
-384 -32 -58 -33 -63 -15 -63 11 0 22 6 24 13 4 19 152 266 156 262 3 -3 -35
-225 -44 -257 -3 -10 -1 -18 3 -18 5 0 19 62 32 138 25 150 45 206 89 253 l29
31 26 -26 c37 -37 97 -55 149 -45 24 4 47 8 51 9 13 0 -65 -138 -143 -258 -38
-56 -65 -102 -60 -102 11 0 96 131 165 254 60 108 62 109 112 125 27 9 56 21
64 26 8 6 29 19 48 29 l35 19 -24 -39 c-13 -21 -31 -50 -40 -64 -29 -43 -32
-50 -21 -50 6 0 11 4 11 9 0 28 83 126 120 144 8 4 33 18 55 32 64 39 76 34
171 -61 83 -83 86 -88 80 -123 -3 -20 -10 -37 -16 -39 -5 -2 -7 -8 -4 -13 3
-6 2 -15 -3 -22 -5 -7 -18 -40 -29 -75 -10 -34 -22 -62 -25 -62 -4 0 -9 -12
-12 -27 -3 -16 -9 -36 -12 -45 -5 -12 -2 -18 7 -18 13 0 54 99 108 263 21 66
23 68 41 51 16 -15 17 -20 6 -33 -8 -9 -17 -23 -22 -31 -4 -8 4 -2 17 14 l24
28 46 -57 c40 -47 50 -69 65 -136 10 -43 22 -79 26 -79 5 0 6 8 4 18 -3 9 -13
51 -23 92 l-19 75 -158 158 c-89 88 -174 164 -193 172 -34 14 -36 13 -137 -40
-314 -166 -441 -163 -481 10 -4 17 -28 81 -53 143 -25 62 -44 114 -42 116 2 1
38 19 80 39 88 43 132 46 269 22 92 -16 117 -18 107 -9 -9 10 -219 53 -258 54
-45 0 -169 37 -169 50 0 6 -4 10 -10 10 -5 0 -10 -7 -10 -15 0 -8 7 -15 15
-15 28 0 15 -16 -28 -37 l-44 -21 -44 76 c-54 94 -119 244 -153 349 -36 114
-54 211 -66 358 -6 72 -13 145 -16 163 -3 22 -1 32 8 32 14 0 43 -103 34 -119
-3 -5 13 -18 37 -28 46 -22 172 -30 197 -13 11 7 7 10 -17 10 -18 0 -33 5 -33
10 0 6 -7 10 -16 10 -10 0 -14 -6 -10 -15 7 -18 -7 -18 -58 0 -22 8 -43 12
-46 10 -4 -2 -16 2 -26 10 -12 9 -14 14 -6 15 10 0 10 5 2 20 -12 22 -10 87 3
83 4 -2 24 -3 45 -3 28 0 33 -3 22 -10 -11 -8 -7 -9 14 -4 27 6 28 6 22 -24
-9 -39 9 -51 36 -22 17 18 18 24 7 31 -10 7 -5 9 16 7 29 -3 30 -5 27 -47 l-4
-43 31 7 c24 5 31 3 31 -9 0 -9 -3 -16 -7 -16 -5 0 -9 -16 -10 -35 -3 -53 -5
-65 -16 -65 -5 0 -7 -7 -4 -15 6 -15 -21 -106 -34 -115 -10 -7 -32 -91 -25
-97 3 -3 10 5 15 18 5 13 19 48 31 78 47 119 61 206 54 340 -7 128 -36 274
-47 236 -14 -46 4 208 20 290 l17 90 8 -96 c16 -220 108 -468 254 -689 53 -79
94 -129 94 -114 0 6 -7 31 -16 55 -19 52 -30 258 -17 339 8 54 9 55 48 62 101
17 232 38 243 38 6 0 25 -28 42 -62 17 -35 35 -67 41 -73 20 -20 5 -25 -81
-25 -84 0 -173 -20 -157 -36 3 -3 16 0 29 7 29 16 238 26 238 12 0 -6 12 -8
28 -5 27 6 27 6 3 12 -25 6 -49 59 -65 141 l-6 37 67 9 68 10 -68 2 c-44 1
-69 5 -72 14 -6 16 -24 271 -20 275 2 2 13 -16 26 -40 12 -23 48 -86 80 -139
33 -53 59 -103 59 -112 0 -10 4 -17 9 -17 14 0 157 -227 149 -235 -2 -2 -37 0
-78 5 -113 13 -248 19 -317 13 -50 -5 -64 -10 -69 -25 -3 -11 -27 -33 -52 -50
-39 -25 -42 -29 -19 -24 16 4 47 19 69 33 27 18 42 23 47 15 4 -7 12 -8 21 -2
8 6 33 10 55 10 29 0 36 -3 25 -10 -10 -6 -11 -10 -2 -10 6 0 12 -9 12 -20 0
-11 7 -20 15 -20 8 0 15 4 15 9 0 6 17 11 38 13 42 3 42 23 0 23 -16 0 -28 3
-28 7 0 10 135 10 168 1 20 -5 23 -10 18 -36 -3 -16 -14 -36 -24 -43 -9 -7
-14 -16 -10 -20 8 -7 69 36 106 75 12 13 25 21 29 18 9 -10 -16 -150 -44 -247
-25 -89 -97 -241 -140 -297 -14 -18 -21 -33 -16 -33 14 0 102 103 158 185 26
39 50 72 52 75 3 3 3 -47 0 -110 -9 -170 -47 -297 -127 -430 l-21 -35 28 34
c15 18 61 72 102 120 90 104 142 183 210 318 58 116 133 301 129 315 -8 22
-98 -146 -111 -207 -2 -5 -6 -15 -10 -22 -4 -7 -29 -53 -55 -102 -55 -105
-104 -180 -116 -181 -8 0 -1 55 11 87 5 12 2 15 -8 11 -13 -5 -14 5 -6 68 7
58 6 81 -6 111 -12 32 -13 41 0 71 8 19 12 36 10 38 -3 3 -12 -13 -21 -36 -9
-22 -20 -40 -26 -40 -13 0 -13 8 4 63 8 26 12 47 10 47 -3 0 0 9 6 20 11 20
15 148 6 185 -2 11 -6 54 -7 95 -2 73 -2 74 -9 25 -4 -27 -8 -42 -8 -32 -1 9
-6 17 -12 17 -5 0 -10 6 -10 13 0 6 -9 23 -20 37 -11 14 -20 34 -21 45 0 13
-3 15 -6 6 -3 -7 -34 43 -70 115 -36 71 -70 132 -75 135 -5 3 -9 10 -8 15 2
18 -33 83 -42 77 -6 -3 -4 -9 3 -14 10 -6 10 -9 2 -9 -7 0 -20 11 -29 25 -9
14 -23 25 -30 25 -8 0 -14 11 -15 28 -1 29 -3 24 -13 -21 -4 -15 -11 -25 -16
-22 -13 8 -12 -59 4 -167 10 -74 10 -88 -2 -88 -10 0 -12 9 -8 35 3 19 2 35
-3 35 -5 0 -14 21 -21 48 -8 26 -17 49 -21 52 -4 3 -9 21 -12 40 -4 19 -11 54
-16 77 -6 23 -13 63 -15 90 -2 26 -7 55 -10 63 -3 8 -7 24 -9 35 -1 11 -6 26
-11 33 -17 28 -3 316 20 407 4 16 3 17 -4 5 -6 -8 -15 -58 -22 -110 -7 -52
-16 -107 -20 -122 -5 -15 -6 -51 -3 -80 5 -48 2 -57 -21 -85 -15 -18 -29 -43
-32 -56 -2 -13 -11 -43 -19 -66 -8 -24 -17 -64 -21 -89 -8 -60 -14 -66 -15
-16 -1 34 -3 32 -9 -16 -16 -122 -22 -157 -35 -219 -7 -36 -12 -80 -9 -98 2
-23 -1 -35 -14 -42 -9 -6 -14 -11 -10 -11 4 0 2 -15 -3 -32 -6 -18 -12 -67
-14 -108 -6 -131 -7 -136 -12 -116 -3 12 -7 15 -12 7 -4 -6 -27 28 -53 81 -52
104 -77 173 -85 233 -7 55 -23 68 -17 14 4 -29 2 -39 -4 -29 -14 23 -50 179
-56 242 -3 32 -11 68 -18 80 -9 16 -13 65 -12 163 0 93 -2 122 -6 85 -4 -30
-12 -73 -19 -95 -13 -47 -13 -68 0 -40 8 18 8 17 6 -5 -1 -14 -8 -24 -14 -23
-12 3 -26 -48 -47 -182 -13 -79 -14 -80 -17 -30 -1 28 -4 86 -5 130 -1 44 -2
85 -4 90 -1 6 -2 13 -1 18 0 4 -3 7 -8 7 -14 0 -20 -157 -11 -280 5 -63 8
-115 7 -115 -1 0 -30 1 -65 3 l-64 4 7 51 c15 110 95 357 115 357 4 0 10 26
13 58 11 100 73 316 89 306 4 -3 5 2 2 10 -3 8 6 41 20 72 15 31 24 59 22 62
-3 2 -17 -21 -30 -53z m530 -624 c9 -47 30 -123 45 -168 16 -45 29 -83 29 -86
0 -2 -44 -7 -97 -10 -54 -4 -113 -11 -130 -16 -23 -7 -33 -6 -33 1 0 20 71
310 108 443 l36 130 13 -104 c6 -57 20 -142 29 -190z m-673 -290 c52 -23 62
-47 20 -54 -28 -4 -28 -4 2 -6 29 -1 32 -4 43 -58 6 -31 11 -58 9 -59 -2 -2
-158 24 -172 30 -6 2 -9 39 -7 91 l4 87 26 -5 c15 -3 48 -15 75 -26z m132
-101 c9 -39 2 -90 -12 -90 -17 0 -20 7 -27 78 -7 61 -7 63 13 50 11 -7 23 -24
26 -38z m147 -1042 l40 -12 -52 -23 c-29 -13 -54 -22 -55 -21 -13 24 -22 57
-18 62 10 9 42 7 85 -6z m-92 -23 c28 -34 2 -54 -216 -163 -121 -61 -214 -103
-214 -95 0 7 -10 21 -22 32 l-21 20 224 110 c123 60 227 110 230 110 4 1 12
-6 19 -14z"/>
<path d="M1290 2975 c0 -20 94 -358 97 -348 2 6 -17 86 -43 179 -43 156 -54
191 -54 169z"/>
<path d="M1467 2923 c8 -32 26 -107 39 -168 13 -60 21 -87 18 -60 -11 104 -52
285 -64 285 -5 0 -1 -26 7 -57z"/>
<path d="M1835 2965 c4 -11 28 -76 53 -145 54 -151 79 -256 88 -373 4 -48 10
-85 13 -82 8 8 2 77 -16 185 -15 93 -24 124 -82 293 -17 49 -31 93 -31 98 0 5
24 9 53 10 28 1 63 4 77 9 14 4 -13 5 -58 2 -65 -4 -86 -2 -94 9 -7 10 -8 9
-3 -6z"/>
<path d="M2340 2970 c-12 -8 -11 -10 5 -9 11 1 34 5 50 9 l30 8 -35 1 c-19 0
-42 -4 -50 -9z"/>
<path d="M188 2902 c-77 -120 -156 -301 -172 -392 -3 -19 7 3 23 50 34 104 94
233 150 324 51 83 50 98 -1 18z"/>
<path d="M1176 2847 c16 -47 30 -74 39 -74 8 0 15 4 15 9 0 4 -4 8 -8 8 -4 0
-8 9 -9 21 -2 19 -49 109 -58 109 -2 0 7 -33 21 -73z"/>
<path d="M504 2789 c-10 -17 -34 -112 -33 -134 0 -11 8 12 18 50 9 39 20 76
25 83 4 6 5 12 2 12 -3 0 -8 -5 -12 -11z"/>
<path d="M843 2723 c-13 -32 -23 -63 -22 -68 0 -6 4 0 10 13 5 14 13 20 20 16
8 -4 9 -3 5 4 -4 6 -2 21 4 32 6 12 10 30 8 41 -2 13 -11 0 -25 -38z"/>
<path d="M2419 2672 c-81 -83 -210 -167 -312 -204 -31 -11 -56 -23 -54 -25 6
-5 137 45 165 63 13 9 26 13 29 10 6 -6 77 51 156 124 34 31 104 111 95 109
-1 0 -37 -35 -79 -77z"/>
<path d="M1244 2698 c2 -21 0 -38 -4 -38 -4 0 4 -39 17 -87 14 -49 33 -131 43
-183 10 -52 19 -84 19 -70 1 27 -26 196 -35 220 -4 8 -8 33 -10 55 -2 22 -10
63 -18 90 -14 46 -15 47 -12 13z"/>
<path d="M1082 2650 c0 -19 -2 -43 -6 -52 -4 -9 -6 -27 -3 -40 3 -16 5 -13 6
12 2 33 2 34 17 15 13 -18 14 -17 8 15 -4 19 -11 46 -15 60 -7 22 -8 21 -7
-10z"/>
<path d="M1537 2550 c3 -52 7 -97 9 -99 7 -8 3 104 -6 149 -6 32 -7 17 -3 -50z"/>
<path d="M1396 2545 c3 -38 10 -79 15 -90 5 -11 16 -60 23 -110 8 -49 14 -75
15 -57 1 35 -34 246 -49 297 -6 21 -7 10 -4 -40z"/>
<path d="M217 2549 c-15 -27 -25 -55 -21 -61 4 -6 3 -8 -3 -5 -7 4 -16 -7 -22
-26 l-11 -32 21 25 c14 17 19 19 15 7 -5 -15 -19 -98 -30 -174 -2 -13 0 -23 4
-23 4 0 10 29 13 64 7 74 45 235 60 254 5 7 8 15 5 17 -2 3 -17 -18 -31 -46z"/>
<path d="M566 2498 c-15 -115 -18 -188 -7 -188 6 0 11 -5 11 -11 0 -5 -4 -7
-10 -4 -5 3 -10 -3 -10 -15 0 -18 2 -19 13 -8 8 9 12 53 13 141 0 70 -1 127
-2 127 -1 0 -4 -19 -8 -42z"/>
<path d="M2218 2417 c-43 -28 -76 -52 -74 -55 3 -2 25 10 50 27 24 17 48 31
53 31 12 1 58 38 53 43 -3 3 -40 -18 -82 -46z"/>
<path d="M1559 2374 c-2 -5 -2 -49 1 -99 l5 -90 6 85 c6 75 -1 129 -12 104z"/>
<path d="M1993 2270 c0 -41 2 -58 4 -37 2 20 2 54 0 75 -2 20 -4 3 -4 -38z"/>
<path d="M1908 2293 c-3 -21 -2 -40 3 -43 4 -3 9 -16 12 -30 4 -21 4 -20 6 8
0 17 -3 32 -7 32 -4 0 -6 16 -4 35 2 19 2 35 -1 35 -3 0 -7 -17 -9 -37z"/>
<path d="M550 2228 c0 -18 2 -20 10 -8 10 16 15 8 23 -40 3 -18 5 -14 6 12 1
28 -4 40 -19 48 -17 9 -20 8 -20 -12z"/>
<path d="M30 2195 c-7 -75 -6 -115 3 -106 4 4 6 39 4 77 -2 50 -4 58 -7 29z"/>
<path d="M1464 2025 c0 -60 1 -84 3 -52 2 32 2 81 0 110 -2 29 -3 3 -3 -58z"/>
<path d="M2147 2075 c-41 -14 -114 -60 -134 -84 -11 -12 -13 -6 -14 35 -1 46
-2 45 -10 -21 -5 -38 -18 -88 -29 -110 -10 -22 -26 -83 -35 -135 -25 -147 -35
-180 -30 -95 l4 70 -23 -108 c-12 -59 -28 -113 -35 -120 -10 -9 -11 -6 -7 17
3 15 -1 47 -9 70 -8 22 -15 54 -15 70 0 16 -2 27 -5 24 -3 -2 -7 -78 -9 -169
-4 -164 -20 -275 -52 -366 -9 -26 -16 -58 -15 -71 0 -13 -6 -36 -14 -52 -19
-37 -19 -51 1 -25 18 23 64 111 64 122 0 4 -6 -2 -14 -13 -33 -44 -21 0 41
156 87 222 121 331 149 483 26 147 52 195 138 254 84 58 113 56 148 -8 17 -30
19 -47 13 -159 -4 -69 -7 -158 -6 -199 2 -94 -15 -129 -117 -244 -49 -55 -84
-103 -91 -127 -17 -58 -55 -83 -113 -77 l-47 6 -20 -55 c-12 -30 -21 -59 -21
-64 0 -32 -54 -121 -96 -160 -87 -81 -310 -223 -504 -320 -47 -24 -80 -45 -73
-47 16 -6 202 89 328 168 17 10 37 22 45 26 8 3 17 9 20 13 3 3 19 13 35 23
l30 18 -27 -23 c-16 -13 -28 -29 -28 -36 0 -7 -4 -12 -9 -12 -5 0 -28 -18 -52
-41 -24 -22 -56 -48 -71 -57 -16 -9 -28 -20 -28 -24 0 -4 -6 -8 -14 -8 -8 0
-17 -7 -20 -16 -3 -8 -10 -12 -16 -9 -5 3 -10 1 -10 -4 0 -6 -7 -11 -15 -11
-9 0 -18 -7 -21 -15 -4 -8 -10 -13 -14 -10 -4 3 -10 -2 -14 -10 -8 -22 76 25
154 86 36 28 132 117 214 197 153 152 181 190 206 292 6 25 17 53 24 63 17 22
46 12 46 -15 0 -18 -2 -19 -17 -7 -10 8 -3 -4 14 -26 30 -37 46 -83 82 -235
l10 -45 -4 55 c-3 31 -20 105 -40 165 -19 61 -35 112 -35 115 0 3 12 7 27 8
37 3 61 27 93 94 26 54 174 228 193 228 5 0 6 -10 3 -22 -3 -13 -8 -34 -12
-48 l-6 -25 26 28 25 27 10 -32 c6 -22 10 -26 10 -13 2 20 2 20 17 0 13 -17
16 -18 24 -5 8 13 10 12 10 -2 0 -10 4 -18 9 -18 5 0 7 10 4 23 -5 22 -5 22
11 2 17 -20 17 -20 11 5 l-6 25 14 -24 c13 -21 15 -22 18 -7 3 13 29 -7 103
-81 l99 -98 -7 -95 c-3 -52 -17 -136 -30 -185 -38 -140 -165 -446 -294 -705
-64 -129 -118 -238 -120 -242 -2 -5 3 -8 11 -8 8 0 25 19 37 43 12 23 35 61
51 85 16 24 29 45 29 47 0 2 25 55 55 118 30 62 55 119 55 125 0 7 5 12 10 12
6 0 10 6 10 13 0 7 11 37 25 65 14 29 25 54 25 57 0 2 11 29 25 59 14 30 25
58 25 61 0 4 14 36 30 72 17 35 30 72 30 82 0 9 4 21 9 26 4 6 14 33 21 60 7
28 16 55 20 60 10 14 6 238 -5 300 -8 45 -10 47 -14 21 l-6 -30 -38 50 c-21
28 -52 58 -68 68 -34 20 -45 38 -57 94 -12 51 -7 53 83 42 51 -6 79 -16 114
-41 52 -36 131 -115 132 -133 0 -6 9 -29 20 -51 10 -22 16 -30 13 -17 -6 25 8
29 28 9 7 -8 34 -26 58 -42 25 -15 57 -39 73 -53 15 -14 27 -21 27 -16 0 6
-13 23 -30 39 -34 33 -34 40 4 26 15 -6 26 -7 26 -1 0 5 -17 12 -37 15 -55 10
-66 14 -91 34 l-22 19 36 69 c48 88 91 194 100 241 6 33 5 36 -8 24 -9 -7 -24
-36 -33 -65 -16 -50 -54 -121 -61 -115 -1 2 -5 27 -8 55 -6 66 -15 122 -25
153 -5 14 -16 52 -27 85 -22 74 -74 155 -113 178 l-30 17 -27 -36 c-16 -20
-30 -46 -31 -57 -5 -32 -12 -33 -25 -1 -7 16 -22 42 -32 57 l-19 28 -29 -28
c-28 -27 -56 -73 -63 -103 -2 -8 -11 -42 -19 -75 -26 -97 -31 -169 -14 -207 9
-18 18 -45 22 -60 l6 -28 -70 3 c-99 5 -100 6 -94 192 2 83 6 196 9 253 2 57
1 101 -4 98 -5 -3 -14 7 -21 24 -21 51 -70 73 -123 55z m410 -300 c-4 -49 -13
-112 -22 -140 -18 -62 -18 -65 1 -40 30 39 114 215 130 274 10 34 20 61 24 61
8 0 65 -95 94 -160 40 -87 58 -167 63 -282 9 -173 10 -173 -105 -59 -109 109
-145 126 -246 119 l-56 -3 0 34 c0 18 5 51 10 72 6 22 15 58 21 82 5 23 24 78
42 122 l31 79 9 -34 c5 -19 7 -75 4 -125z"/>
<path d="M1740 2018 c0 -13 -3 -34 -6 -48 -5 -23 -5 -23 10 4 18 33 20 52 6
61 -6 3 -10 -4 -10 -17z"/>
<path d="M2194 1960 c-40 -15 -124 -121 -171 -216 -46 -92 -47 -96 -35 -140 7
-24 12 -58 12 -76 0 -36 -46 -115 -72 -121 -10 -3 -18 -14 -18 -26 0 -19 4
-17 35 15 19 19 35 40 35 45 0 5 25 23 56 41 102 57 164 142 178 243 5 32 1
27 -17 -27 -28 -78 -44 -104 -93 -152 -42 -41 -84 -49 -84 -15 0 11 -5 29 -10
40 -8 14 -6 27 6 51 10 18 19 28 21 21 3 -9 10 -9 29 -1 13 6 24 15 24 19 0
17 36 0 47 -22 12 -23 13 -23 13 -2 0 60 -43 70 -117 28 l-43 -26 10 25 c5 13
22 51 39 84 l30 60 37 -11 c35 -11 38 -10 70 26 19 20 36 37 39 37 2 0 6 -12
8 -27 2 -16 2 -3 0 27 -3 30 -9 63 -14 72 -7 12 -4 17 9 20 9 2 13 6 7 10 -5
3 -19 2 -31 -2z m6 -66 c0 -15 -6 -24 -15 -24 -21 0 -30 27 -15 45 16 19 30
10 30 -21z m-35 -24 c17 -19 17 -21 0 -40 -18 -20 -69 -28 -79 -12 -5 9 41 72
53 72 4 0 16 -9 26 -20z"/>
<path d="M993 1926 c3 -7 0 -19 -6 -25 -8 -8 -8 -11 0 -11 6 0 16 7 23 15 7 8
28 15 47 15 20 0 32 4 28 10 -3 6 -27 10 -52 10 -34 0 -44 -3 -40 -14z"/>
<path d="M1285 1881 c7 -12 67 -42 72 -37 4 4 -60 46 -71 46 -4 0 -5 -4 -1 -9z"/>
<path d="M1263 1728 c-16 -23 -10 -53 12 -53 15 0 20 7 20 29 0 32 -16 44 -32
24z"/>
<path d="M990 1650 c0 -15 68 -32 178 -45 59 -7 97 -13 84 -14 -13 -1 -21 -5
-18 -10 5 -7 43 0 74 15 1 1 0 7 -3 15 -4 10 -20 13 -62 10 -44 -2 -58 1 -65
13 -12 22 -39 21 -31 -1 5 -14 1 -15 -36 -9 -23 3 -60 12 -81 20 -22 8 -40 10
-40 6z"/>
<path d="M2584 1441 c4 -5 3 -11 -1 -13 -5 -1 2 -23 15 -48 12 -24 22 -38 22
-30 0 8 -7 28 -15 44 -18 35 -19 39 -2 30 8 -5 8 -2 -2 9 -14 18 -26 23 -17 8z"/>
<path d="M2240 1339 c0 -11 -3 -18 -7 -16 -5 3 -9 -5 -10 -16 0 -12 -7 -35
-14 -52 -6 -16 -14 -39 -16 -50 -2 -11 -8 -24 -13 -29 -6 -6 -10 -25 -10 -43
0 -18 -4 -33 -9 -33 -5 0 -11 -11 -13 -25 -3 -14 -2 -25 2 -25 9 0 41 100 35
110 -3 5 -1 10 3 12 7 2 72 169 72 184 0 2 -4 4 -10 4 -5 0 -10 -9 -10 -21z"/>
<path d="M297 1205 c6 -11 19 -28 30 -37 26 -24 153 -87 153 -76 0 5 -25 20
-55 33 -30 14 -73 41 -96 62 -25 23 -38 30 -32 18z"/>
<path d="M1384 1193 c-15 -45 -37 -86 -71 -130 -20 -26 -28 -41 -18 -33 53 42
108 121 110 157 1 27 -13 31 -21 6z"/>
<path d="M541 1151 c-11 -7 -9 -10 8 -16 22 -7 41 0 41 16 0 11 -30 12 -49 0z"/>
<path d="M1620 1122 c0 -4 -16 -25 -36 -46 -19 -21 -33 -40 -30 -44 3 -3 7 -3
9 -1 1 2 20 25 41 52 20 26 33 47 27 47 -6 0 -11 -4 -11 -8z"/>
<path d="M2675 1085 c-3 -26 -4 -49 -2 -52 3 -3 9 16 12 42 4 25 5 48 2 51 -2
3 -8 -16 -12 -41z"/>
<path d="M2132 1013 c0 -20 -7 -49 -17 -75 -4 -10 -3 -18 3 -18 5 0 12 13 15
29 3 16 9 40 13 55 4 16 2 26 -4 26 -6 0 -11 -8 -10 -17z"/>
<path d="M1516 990 c-15 -17 -31 -28 -36 -25 -4 3 -21 -15 -37 -41 -15 -25
-45 -69 -66 -97 l-38 -52 38 41 c100 107 175 195 171 199 -3 3 -17 -9 -32 -25z"/>
<path d="M2110 905 c-1 -5 -2 -13 -2 -16 1 -4 -3 -22 -9 -40 -6 -19 -12 -42
-14 -52 -2 -10 -7 -27 -10 -38 -4 -10 -2 -19 4 -19 11 0 45 144 38 162 -3 7
-6 9 -7 3z"/>
<path d="M540 762 c1 -9 57 -48 98 -67 25 -12 41 -14 60 -6 25 9 24 9 -15 10
-47 1 -73 9 -73 23 0 5 5 6 12 2 6 -4 33 -6 60 -5 28 1 48 -2 48 -9 0 -5 7
-10 16 -10 9 0 12 5 8 12 -4 6 -3 8 4 4 6 -3 26 0 44 8 31 13 26 14 -77 13
-83 -1 -119 3 -147 15 -21 9 -38 14 -38 10z"/>
<path d="M2048 648 c-9 -18 -19 -55 -23 -82 -4 -27 -10 -56 -15 -65 -4 -9 -15
-65 -25 -124 -9 -60 -31 -169 -49 -243 -18 -74 -30 -134 -26 -134 12 0 121
465 135 574 3 27 11 58 16 68 6 11 9 23 7 29 -2 5 -11 -5 -20 -23z"/>
<path d="M1929 578 c-13 -18 -29 -37 -36 -41 -7 -4 -13 -14 -13 -21 0 -8 -7
-19 -15 -26 -8 -7 -12 -16 -9 -21 3 -5 0 -9 -5 -9 -6 0 -11 -7 -11 -15 0 -8
-4 -15 -10 -15 -5 0 -10 -6 -10 -14 0 -7 -16 -26 -35 -40 -38 -29 -47 -50 -16
-38 18 7 131 165 131 184 0 4 5 8 10 8 6 0 10 7 10 15 0 8 3 15 8 15 9 0 35
41 29 47 -3 2 -15 -11 -28 -29z"/>
<path d="M2139 465 c-2 -97 -4 -71 21 -245 22 -153 38 -207 24 -80 -5 41 -9
98 -9 127 0 28 -3 49 -7 46 -5 -2 -8 2 -8 11 0 8 -3 22 -7 32 -4 12 -3 15 6
10 10 -6 11 8 5 65 -10 112 -22 128 -25 34z"/>
<path d="M2982 305 c-7 -37 -11 -69 -9 -71 6 -7 30 112 25 127 -2 6 -10 -18
-16 -56z"/>
<path d="M1453 333 c10 -11 44 -35 76 -52 53 -28 60 -35 70 -77 7 -26 8 -51 3
-57 -8 -11 6 -143 14 -134 9 9 5 179 -6 211 -9 27 -24 42 -68 67 -31 17 -68
39 -82 48 -25 15 -25 15 -7 -6z"/>
<path d="M860 220 c-24 -39 -40 -73 -37 -77 4 -3 11 6 17 21 5 15 24 48 41 72
17 25 29 48 26 50 -3 3 -24 -26 -47 -66z"/>
<path d="M530 105 c-11 -26 -30 -61 -41 -79 l-21 -31 21 24 21 23 1 -23 c1
-13 12 9 25 50 28 85 24 107 -6 36z"/>
<path d="M2120 128 c-1 -7 -3 -40 -5 -73 -4 -68 1 -57 13 28 5 31 5 57 0 57
-4 0 -8 -6 -8 -12z"/>
<path d="M1215 65 c-3 -31 -5 -59 -2 -61 3 -3 8 20 12 51 3 31 5 59 2 61 -3 3
-8 -20 -12 -51z"/>
</g>
</svg>
